<svg width="35" height="34" viewBox="0 0 35 34" fill="none" xmlns="http://www.w3.org/2000/svg">
<path fill-rule="evenodd" clip-rule="evenodd" d="M0.665405 17C0.665405 7.61116 8.27656 0 17.6654 0C27.0542 0 34.6654 7.61116 34.6654 17C34.6654 26.3888 27.0542 34 17.6654 34C8.27656 34 0.665405 26.3888 0.665405 17Z" fill="white"/>
<path fill-rule="evenodd" clip-rule="evenodd" d="M17.3428 8.5C15.1218 8.5 14.843 8.51009 13.9707 8.55135C13.1001 8.59279 12.5058 8.73605 11.9858 8.94625C11.4479 9.16335 10.9917 9.45377 10.5371 9.92641C10.0822 10.3989 9.8028 10.8731 9.59324 11.432C9.39049 11.9726 9.25249 12.5904 9.2133 13.495C9.17429 14.4017 9.16406 14.6915 9.16406 17C9.16406 19.3085 9.17394 19.5973 9.21347 20.5039C9.25351 21.4088 9.39134 22.0265 9.59341 22.567C9.80246 23.126 10.0819 23.6003 10.5366 24.0727C10.991 24.5455 11.4473 24.8366 11.9848 25.0538C12.5051 25.2639 13.0996 25.4072 13.97 25.4486C14.8423 25.4899 15.1209 25.5 17.3418 25.5C19.5629 25.5 19.8408 25.4899 20.7132 25.4486C21.5838 25.4072 22.1787 25.2639 22.699 25.0538C23.2368 24.8366 23.6923 24.5455 24.1467 24.0727C24.6016 23.6003 24.8811 23.126 25.0906 22.5671C25.2917 22.0265 25.4297 21.4087 25.4706 20.5041C25.5097 19.5975 25.52 19.3085 25.52 17C25.52 14.6915 25.5097 14.4018 25.4706 13.4952C25.4297 12.5903 25.2917 11.9726 25.0906 11.4321C24.8811 10.8731 24.6016 10.3989 24.1467 9.92641C23.6918 9.45359 23.2369 9.16318 22.6985 8.94625C22.1772 8.73605 21.5826 8.59279 20.712 8.55135C19.8396 8.51009 19.5619 8.5 17.3402 8.5L17.3428 8.5Z" fill="#222222"/>
<path fill-rule="evenodd" clip-rule="evenodd" d="M16.6047 10.0324C16.7471 10.0322 16.9004 10.0322 17.0657 10.0323L17.3383 10.0324C19.5219 10.0324 19.7807 10.0405 20.6429 10.0813C21.4403 10.1192 21.873 10.2576 22.1613 10.374C22.543 10.5281 22.815 10.7122 23.1011 11.0097C23.3873 11.3072 23.5645 11.5906 23.7131 11.9872C23.825 12.2865 23.9584 12.7363 23.9947 13.565C24.0339 14.4611 24.0424 14.7302 24.0424 16.9987C24.0424 19.2671 24.0339 19.5363 23.9947 20.4323C23.9583 21.2611 23.825 21.7109 23.7131 22.0101C23.5649 22.4068 23.3873 22.6893 23.1011 22.9866C22.8149 23.2841 22.5431 23.4682 22.1613 23.6223C21.8734 23.7392 21.4403 23.8773 20.6429 23.9152C19.7808 23.9559 19.5219 23.9648 17.3383 23.9648C15.1546 23.9648 14.8958 23.9559 14.0337 23.9152C13.2364 23.877 12.8036 23.7385 12.5152 23.6221C12.1335 23.4681 11.8609 23.2839 11.5747 22.9864C11.2884 22.6889 11.1113 22.4063 10.9627 22.0094C10.8508 21.7102 10.7173 21.2604 10.6811 20.4316C10.6419 19.5356 10.634 19.2664 10.634 16.9966C10.634 14.7267 10.6419 14.459 10.6811 13.5629C10.7175 12.7342 10.8508 12.2844 10.9627 11.9847C11.1109 11.5881 11.2884 11.3047 11.5747 11.0072C11.8609 10.7097 12.1335 10.5256 12.5152 10.3712C12.8034 10.2543 13.2364 10.1162 14.0337 10.0781C14.7881 10.0427 15.0805 10.032 16.6047 10.0303V10.0324ZM21.7037 11.444C21.1619 11.444 20.7223 11.9003 20.7223 12.4636C20.7223 13.0267 21.1619 13.4836 21.7037 13.4836C22.2454 13.4836 22.685 13.0267 22.685 12.4636C22.685 11.9005 22.2454 11.4436 21.7037 11.4436V11.444ZM13.1409 16.9999C13.1409 14.5893 15.0212 12.6349 17.3405 12.6348C19.6598 12.6348 21.5397 14.5892 21.5397 16.9999C21.5397 19.4105 19.66 21.3641 17.3406 21.3641C15.0213 21.3641 13.1409 19.4105 13.1409 16.9999Z" fill="white"/>
<path fill-rule="evenodd" clip-rule="evenodd" d="M17.341 14.1655C18.8464 14.1655 20.067 15.434 20.067 16.9989C20.067 18.5636 18.8464 19.8322 17.341 19.8322C15.8354 19.8322 14.615 18.5636 14.615 16.9989C14.615 15.434 15.8354 14.1655 17.341 14.1655Z" fill="white"/>
</svg>
