<svg width="35" height="34" viewBox="0 0 35 34" fill="none" xmlns="http://www.w3.org/2000/svg">
<path fill-rule="evenodd" clip-rule="evenodd" d="M0.334595 17C0.334595 7.61116 7.94575 0 17.3346 0C26.7234 0 34.3346 7.61116 34.3346 17C34.3346 26.3888 26.7234 34 17.3346 34C7.94575 34 0.334595 26.3888 0.334595 17Z" fill="white"/>
<path fill-rule="evenodd" clip-rule="evenodd" d="M17.984 17.2729C20.3959 17.2729 22.3565 15.3056 22.3565 12.8871C22.3565 10.4678 20.3959 8.5 17.984 8.5C15.5727 8.5 13.6116 10.4678 13.6116 12.8871C13.6116 15.3056 15.5727 17.2729 17.984 17.2729Z" fill="#222222"/>
<path fill-rule="evenodd" clip-rule="evenodd" d="M19.7619 20.8535C20.6519 20.65 21.5103 20.2967 22.3009 19.7986C22.8992 19.4201 23.0795 18.6266 22.7025 18.0263C22.3258 17.4247 21.5354 17.2436 20.936 17.6221C19.145 18.752 16.8391 18.7518 15.0491 17.6221C14.4497 17.2436 13.6591 17.4247 13.2831 18.0263C12.9061 18.6271 13.0859 19.4201 13.6842 19.7986C14.4748 20.2962 15.3332 20.65 16.2232 20.8535L13.7786 23.3061C13.2789 23.8079 13.2789 24.6216 13.7792 25.1235C14.0295 25.3742 14.3571 25.4996 14.6846 25.4996C15.0127 25.4996 15.3408 25.3742 15.5911 25.1235L17.9923 22.7134L20.3955 25.1235C20.8952 25.6254 21.706 25.6254 22.2062 25.1235C22.7069 24.6216 22.7069 23.8074 22.2062 23.3061L19.7619 20.8535Z" fill="#222222"/>
<path fill-rule="evenodd" clip-rule="evenodd" d="M17.9842 11.0715C18.9826 11.0715 19.7946 11.886 19.7946 12.8876C19.7946 13.8885 18.9826 14.7035 17.9842 14.7035C16.9867 14.7035 16.1738 13.8885 16.1738 12.8876C16.1738 11.886 16.9867 11.0715 17.9842 11.0715Z" fill="white"/>
</svg>
