<svg width="34" height="34" viewBox="0 0 34 34" fill="none" xmlns="http://www.w3.org/2000/svg">
<path fill-rule="evenodd" clip-rule="evenodd" d="M0 17C0 7.61116 7.61116 0 17 0C26.3888 0 34 7.61116 34 17C34 26.3888 26.3888 34 17 34C7.61116 34 0 26.3888 0 17Z" fill="white"/>
<path fill-rule="evenodd" clip-rule="evenodd" d="M17.8337 22.6034C17.8337 22.6034 18.1405 22.5687 18.2977 22.3965C18.4415 22.2387 18.4365 21.9409 18.4365 21.9409C18.4365 21.9409 18.4174 20.5506 19.0501 20.3453C19.6737 20.1434 20.4745 21.6898 21.3242 22.2845C21.9661 22.7341 22.4534 22.6357 22.4534 22.6357L24.7241 22.6034C24.7241 22.6034 25.9114 22.5288 25.3485 21.5761C25.302 21.4981 25.0201 20.8712 23.6607 19.5835C22.2363 18.2355 22.4276 18.4536 24.1421 16.1216C25.1864 14.7015 25.6038 13.8346 25.4733 13.4638C25.3494 13.1093 24.5811 13.2034 24.5811 13.2034L22.0251 13.2195C22.0251 13.2195 21.8356 13.1932 21.6951 13.2789C21.5579 13.3629 21.4689 13.5589 21.4689 13.5589C21.4689 13.5589 21.0648 14.6574 20.5252 15.5922C19.3869 17.5637 18.9321 17.668 18.7458 17.5459C18.3126 17.26 18.4207 16.399 18.4207 15.7873C18.4207 13.8761 18.7051 13.0796 17.8678 12.8734C17.5901 12.8047 17.3855 12.7598 16.6746 12.7521C15.7625 12.7428 14.9909 12.7555 14.5536 12.9735C14.2625 13.1186 14.038 13.4426 14.1752 13.4613C14.344 13.4842 14.7265 13.5665 14.9294 13.8481C15.1913 14.212 15.1821 15.0281 15.1821 15.0281C15.1821 15.0281 15.3326 17.2778 14.8304 17.5569C14.4862 17.7486 14.0139 17.3575 12.9987 15.5685C12.479 14.6523 12.0866 13.6394 12.0866 13.6394C12.0866 13.6394 12.0109 13.4503 11.8754 13.3485C11.7116 13.2255 11.4829 13.1873 11.4829 13.1873L9.05421 13.2034C9.05421 13.2034 8.68919 13.2136 8.55532 13.3756C8.43642 13.519 8.54618 13.8167 8.54618 13.8167C8.54618 13.8167 10.4478 18.356 12.6013 20.6439C14.576 22.7409 16.8176 22.6034 16.8176 22.6034H17.8337Z" fill="#222222"/>
</svg>
